<svg xmlns="http://www.w3.org/2000/svg" xmlns:xlink="http://www.w3.org/1999/xlink" width="81" height="89" viewBox="0 0 81 89">
  <defs>
    <polygon id="group-3-a" points="0 0 81 0 81 89 0 89"/>
  </defs>
  <g fill="none" fill-rule="evenodd">
    <mask id="group-3-b" fill="#fff">
      <use xlink:href="#group-3-a"/>
    </mask>
    <path fill="#B67C4D" d="M81,65.931297 L53.5810356,44.3423333 L78.8123696,25.1584338 L76.2389207,23.7255466 C72.6273417,21.7148193 69.1211667,20.0710986 65.7124408,18.6987285 L75.4195536,11.1106733 L72.9912839,9.67388185 C36.6149672,-11.833091 8.12605269,9.20341072 7.84166073,9.41814858 L5.93046723,10.8666531 L14.4662034,18.0818452 C8.08627759,20.7933987 4.51248496,23.6435558 4.41105846,23.7255466 L2.54162881,25.2599462 L26.9874046,44.0221787 L0,65.1172453 L2.43423605,66.5520846 C2.84391957,66.7941527 6.34213951,68.7951192 12.3899433,70.7707075 L3.16212036,77.7887312 L5.08126887,79.3270352 C5.79920941,79.9009709 17.4851334,89.0019518 37.2692676,89 C47.2050873,89 59.1873358,86.7042567 72.8421272,79.8834014 L75.5209801,78.544218 L66.2414496,71.0244886 C69.9962189,69.9859382 73.8643473,68.7248413 77.8597559,67.1611593 L81,65.931297 Z M12.278573,11.130195 C18.8832282,7.08921887 40.6819711,-3.51492711 68.4847652,11.5850488 L61.4286626,17.0999075 C43.4165091,10.9896393 28.6321049,13.0999268 18.632645,16.4986415 L12.278573,11.130195 Z M37.9176017,70.8644113 C31.5177883,70.7687553 25.8836456,70.0113163 21.1523976,69.0020484 L37.9176017,56.252476 L37.9176017,70.8644113 Z M41.8573252,56.2778541 L57.636107,69.0664697 C52.019863,70.163585 46.7417074,70.704334 41.8573252,70.8409853 L41.8573252,56.2778541 Z M37.9176017,32.7972451 L22.0473373,19.3839375 C23.1570625,19.0520699 24.3025854,18.7358196 25.5216922,18.4547082 C29.0040021,17.6562738 33.1764099,17.0764815 37.9176017,17.0354861 L37.9176017,32.7972451 Z M41.8573252,17.1213813 C46.6760785,17.3868754 51.9959979,18.2380182 57.7434997,19.9812992 L41.8573252,32.399004 L41.8573252,17.1213813 Z M7.08195635,64.5276922 L33.2499939,44.0729349 L31.5515971,42.6634737 L30.789904,42.0309731 L30.181345,41.5273152 L30.1574799,41.5448847 L8.96132977,25.2755635 C10.7710968,24.1120747 13.7601954,22.4117413 17.7476491,20.8539157 L36.430013,36.643005 L36.4041592,36.6625266 L37.9176017,37.7596418 L37.9176017,40.4243435 L37.9176017,47.9421208 L37.9176017,51.3603571 L16.2898917,67.8053729 C12.2069778,66.6614057 9.08662133,65.4256869 7.08195635,64.5276922 L7.08195635,64.5276922 Z M68.339586,77.7399271 C37.2812001,92.0922249 16.1228363,81.8179943 9.64148395,77.7555444 L17.0456186,72.123556 C22.8686931,73.6325775 30.2589064,74.8585355 39.0034619,74.8585355 C45.7612512,74.8585355 53.3165312,74.1167138 61.5360554,72.2250685 L68.339586,77.7399271 Z M62.496624,67.9888761 L43.1281397,52.2915385 L43.1460384,52.2778734 L41.8573252,51.2100406 L41.8573252,48.3637878 L41.8573252,40.6195597 L41.8573252,37.3438313 L62.1505807,21.482512 C65.2271846,22.6206227 68.4012374,23.9929928 71.6806943,25.6874698 L47.0698519,44.4008982 L50.3632301,46.790345 L50.3751627,46.7805841 L50.6873972,47.0246044 L50.8345651,47.1319734 L50.8285988,47.1378299 L73.2140244,64.7599996 C69.5308503,66.0796613 65.9590464,67.1357812 62.496624,67.9888761 L62.496624,67.9888761 Z" mask="url(#group-3-b)"/>
  </g>
</svg>
