<svg xmlns="http://www.w3.org/2000/svg" width="328" height="147" viewBox="0 0 328 147">
  <g fill="#B67C4D" fill-rule="evenodd">
    <g transform="translate(0 80.5)">
      <path d="M16.3830306 13.9405424C16.3830306 21.1983051 16.5128639 26.8094237 16.767975 29.0869831 15.7395583 28.9616949 15.2213639 28.9191864 14.5778917 28.9191864 13.8888639 28.9191864 13.4629194 28.9616949 12.5597806 29.0869831 12.8148917 27.0622373 12.9902806 20.1859322 12.9902806 12.7603729 12.9902806 9.84854237 12.9025861 6.68501695 12.7738917 2.75969492 12.3433917 2.75969492 7.21611389 2.84359322 4.63766944 2.92972881 2.31889167 3.01362712 1.33261389 3.09864407.000113888889 3.3100678.128808333 2.80332203.170947222 2.50688136.170947222 2.04376271.170947222 1.57952542.128808333 1.24169492.000113888889.609661017 3.82336389.818847458 8.60783611.861355932 14.0642528.861355932 20.0764472.861355932 24.8609194.818847458 29.1568083.609661017 28.9426972 1.1980678 28.8971417 1.49338983 28.8971417 1.95986441 28.8971417 2.42298305 28.9426972 2.71830508 29.0691139 3.3100678 27.6523361 3.01362712 20.8076139 2.80332203 16.6381417 2.75969492 16.4673083 5.37620339 16.3830306 9.59461017 16.3830306 13.9405424M48.2465222.777569492C49.0198278.777569492 49.4947444.735061017 50.3523278.608654237 50.0972167 3.56187458 49.9218278 8.58234915 49.9218278 13.4764169 49.9218278 20.6502814 50.0516611 25.8821797 50.3523278 29.0870949 49.3204944 28.9618068 48.8057167 28.9192983 48.2043833 28.9192983 47.5609111 28.9192983 47.0894111 28.9618068 46.1441333 29.0870949 46.4003833 25.7546542 46.5290778 20.6066542 46.5290778 12.6743492 46.5290778 7.99170508 46.3582444 3.22404407 46.1441333.608654237 47.0017167.735061017 47.4732167.777569492 48.2465222.777569492M74.3774167.229545763C78.6300278 8.49856271 84.2162778 18.8773424 86.4473611 22.5476136 87.3083611 21.1135119 87.822 20.2275458 89.5428611 17.1042915 93.7931944 9.55344407 95.7691667 6.05096949 99.0776389.229545763L99.6368333.229545763C99.6789722.566257627 99.7211111.819071186 99.7211111.945477966L101.225583 14.7853424C102.257417 23.5185966 102.728917 27.1463593 103.071722 29.0872068 101.911194 28.9619186 101.484111 28.9194102 101.011472 28.9194102 100.539972 28.9194102 100.109472 28.9619186 98.9899444 29.0872068 98.9068056 25.0802237 98.2177778 17.6960542 96.9718333 7.73900339 93.1075833 14.1521898 87.6511667 24.4045627 85.8038889 28.6665966L85.4610833 28.6665966C80.8201111 19.3840881 79.9181111 17.6960542 74.5493889 8.11934237 73.4754167 15.8402237 72.4014444 26.4304271 72.447 29.0872068 71.4983056 28.9619186 71.2431944 28.9194102 70.8969722 28.9194102 70.5120278 28.9194102 70.2113611 28.9619186 69.4391944 29.0872068 70.5541667 23.3508 71.3274722 17.9499864 73.6918056.229545763L74.3774167.229545763zM126.208933 27.0622373C126.810267 27.1047458 127.198628 27.1047458 127.713406 27.1047458 131.23485 27.1047458 139.283378 26.8508136 141.175072 26.5554915 141.087378 27.1047458 141.046378 27.4000678 141.046378 27.8217966 141.046378 28.2871525 141.087378 28.5399661 141.175072 29.0869831 137.177572 28.9616949 134.987489 28.9191864 134.603683 28.9191864 132.109517 28.9191864 123.329822 29.0030847 122.172711 29.0869831 122.473378 26.2187797 122.644211 19.5952881 122.644211 12.590339 122.644211 7.18952542 122.515517 2.92972881 122.343544.609661017 123.589489.734949153 126.338767.777457627 130.032183.777457627 133.683461.777457627 139.972406.734949153 140.958683.609661017 140.874406 1.1980678 140.82885 1.49338983 140.82885 1.83233898 140.82885 2.12766102 140.874406 2.42298305 140.958683 3.05501695 138.597767 2.80332203 130.846489 2.63440678 127.796544 2.63440678 127.325044 2.63440678 126.9401 2.63440678 126.380906 2.67579661 126.296628 3.56176271 126.036961 10.692 126.036961 12.2536271 126.036961 12.3375254 126.036961 12.7178644 126.0791 13.0970847 126.681572 13.1395932 126.9401 13.1395932 127.625711 13.1395932 130.846489 13.1395932 138.339239 12.9695593 139.972406 12.7603729 139.842572 13.3924068 139.800433 13.7313559 139.800433 14.1105763 139.800433 14.5311864 139.842572 14.7851186 139.972406 15.2493559 138.167267 15.0815593 131.322544 14.9540339 127.541433 14.9540339 126.982239 14.9540339 126.639433 14.9540339 126.036961 14.9954237 126.036961 15.4607797 126.036961 16.3881356 126.0791 17.8222373L126.0791 20.9454915C126.0791 21.7889492 126.0791 22.8438305 126.121239 24.0251186 126.166794 25.3328136 126.208933 26.1762712 126.208933 26.3876949L126.208933 27.0622373zM173.063392 5.50305763C172.247947 3.18187119 170.143281 1.70526102 167.694669 1.70526102 164.686864 1.70526102 162.412503 3.89892203 162.412503 6.76936271 162.412503 8.24485424 163.098114 9.68007458 164.301919 10.564922 165.333753 11.3244814 166.578558 11.9151254 169.155864 12.9700068 171.989419 14.1512949 172.850419 14.6155322 173.882253 15.6290237 175.169197 16.8517017 175.812669 18.4547186 175.812669 20.3955661 175.812669 25.6274644 171.388086 29.6366847 165.634419 29.6366847 162.885142 29.6366847 160.348836 28.8346169 158.415003 27.2741085 159.016336 25.4596678 159.146169 24.7851254 159.276003 23.5188203L159.705364 23.5188203C160.863614 26.0503119 163.612892 27.7808542 166.407725 27.7808542 169.883614 27.7808542 172.462058 25.2482441 172.462058 21.8319051 172.462058 20.3116678 171.947281 19.1728881 170.957586 18.2455322 169.929169 17.315939 169.282281 16.9792271 166.277892 15.7543119 161.080003 13.6456678 159.146169 11.5359051 159.146169 7.90814237 159.146169 3.26688814 162.839586.0597355932 168.208308.0597355932 170.744614.0597355932 172.590753.650379661 174.654419 2.04309153 174.137364 3.09797288 173.706864 4.4895661 173.493892 5.50305763L173.063392 5.50305763zM197.742658.777569492C198.602519.777569492 199.676492.735061017 201.005575.693671186 202.254936.650044068 203.283353.608654237 203.884686.608654237 210.072269.608654237 213.293047 3.01373898 213.293047 7.56885763 213.293047 10.4392983 211.918408 12.9282814 209.554075 14.3198746 207.493825 15.5447898 205.045214 16.0492983 201.265242 16.0492983 200.362103 16.0492983 200.103575 16.0492983 198.301853 16.0090271 198.343992 23.8138068 198.473825 26.9784508 198.686797 29.0870949 197.183464 28.9192983 197.011492 28.9192983 196.580992 28.9192983 196.238186 28.9192983 196.025214 28.9192983 194.479742 29.0870949 194.692714 25.9235695 194.864686 19.7631966 194.864686 13.7303492 194.864686 7.86529831 194.734853 3.73078983 194.479742.608654237 195.808825.735061017 196.497853.777569492 197.742658.777569492M200.704908 14.6151966C206.333297 14.6151966 209.428797 12.2112305 209.428797 7.86529831 209.428797 3.98472203 207.063325 2.08414576 202.254936 2.08414576 200.880297 2.08414576 199.931603 2.16916271 198.602519 2.38058644 198.386131 5.2074 198.257436 8.79377288 198.257436 12.4215356 198.257436 12.9696712 198.257436 13.2236034 198.301853 14.4474 199.330269 14.5738068 199.890603 14.6151966 200.704908 14.6151966M245.828142 14.6997661L249.007919 21.916139C250.808503 26.0920373 251.239003 27.0216305 252.228697 29.0877661 251.326697 28.962478 250.854058 28.9188508 249.994197 28.9188508 249.178753 28.9188508 248.707253 28.962478 247.933947 29.0877661 247.160642 26.8941051 244.796308 20.9451559 243.463808 17.9494271L242.690503 17.9494271 237.794419 17.9069186C237.752281 17.9069186 233.628364 17.9494271 232.638669 17.9908169 231.610253 20.4384102 230.791392 22.3792576 230.448586 23.3502407 230.407586 23.3916305 229.546586 25.923122 228.430475 29.0877661 227.700447 28.962478 227.357642 28.9188508 226.969281 28.9188508 226.538781 28.9188508 226.241531 28.962478 225.380531 29.0877661 226.283669 27.3572237 226.927142 26.008139 228.732281 22.1253254 229.805114 19.7202407 230.921225 17.3162746 232.037336 14.8272915 233.155725 12.5061051 234.187558 10.2699356 235.261531 7.82346102 236.247808 5.67118983 237.279642 3.39363051 238.311475 1.1138339L238.738558.230105085 239.169058.230105085 239.599558.230105085 245.828142 14.6997661zM233.415392 16.2200034C235.387947 16.2613932 236.206808 16.2613932 238.353614 16.2613932 240.241892 16.2613932 241.273725 16.2613932 242.736058 16.2200034 240.672392 11.3673254 239.126919 7.86485085 238.137225 5.67118983L233.415392 16.2200034zM291.983094 24.6162102L291.381761 27.1051932C288.891011 28.7921085 285.624678 29.6366847 281.759289 29.6366847 272.69715 29.6366847 266.810233 23.8980407 266.810233 15.0808881 266.810233 5.83976949 273.039956.0597355932 282.963094.0597355932 286.484539.0597355932 289.622178.650379661 292.025233 1.78915932 291.640289 2.71875254 291.339622 3.8575322 291.16765 4.99631186L290.866983 5.12383729C288.674622 2.84404068 285.795511 1.62136271 282.574733 1.62136271 279.097706 1.62136271 276.047761 3.05546441 273.941956 5.63058305 272.008122 7.9495322 271.063983 10.9877695 271.063983 14.9533627 271.063983 19.0039729 272.050261 22.1249898 274.113928 24.4461763 276.177594 26.8098712 279.097706 28.0761763 282.490456 28.0761763 285.925344 28.0761763 288.891011 26.936278 291.770122 24.4886847L291.983094 24.6162102zM312.562019 27.0622373C313.163353 27.1047458 313.551714 27.1047458 314.065353 27.1047458 317.587936 27.1047458 325.636464 26.8508136 327.528158 26.5554915 327.440464 27.1047458 327.399464 27.4000678 327.399464 27.8217966 327.399464 28.2871525 327.440464 28.5399661 327.528158 29.0869831 323.530658 28.9616949 317.759908 28.9191864 317.374964 28.9191864 314.880797 28.9191864 309.682908 29.0030847 308.525797 29.0869831 308.826464 26.2187797 308.997297 19.5952881 308.997297 12.590339 308.997297 7.18952542 308.868603 2.92972881 308.696631.609661017 309.942575.734949153 312.691853.777457627 316.385269.777457627 320.036547.777457627 326.325492.734949153 327.311769.609661017 327.227492 1.1980678 327.181936 1.49338983 327.181936 1.83233898 327.181936 2.12766102 327.227492 2.42298305 327.311769 3.05501695 324.950853 2.80332203 317.199575 2.63440678 314.149631 2.63440678 313.678131 2.63440678 313.293186 2.63440678 312.732853 2.67579661 312.649714 3.56176271 312.390047 10.692 312.390047 12.2536271 312.390047 12.3375254 312.390047 12.7178644 312.432186 13.0970847 313.034658 13.1395932 313.293186 13.1395932 313.978797 13.1395932 317.199575 13.1395932 324.692325 12.9695593 326.325492 12.7603729 326.195658 13.3924068 326.153519 13.7313559 326.153519 14.1105763 326.153519 14.5311864 326.195658 14.7851186 326.325492 15.2493559 324.520353 15.0815593 317.675631 14.9540339 313.894519 14.9540339 313.335325 14.9540339 312.992519 14.9540339 312.390047 14.9954237 312.390047 15.4607797 312.390047 16.3881356 312.432186 17.8222373L312.432186 20.9454915C312.432186 21.7889492 312.432186 22.8438305 312.477742 24.0251186 312.519881 25.3328136 312.562019 26.1762712 312.562019 26.3876949L312.562019 27.0622373zM126.992489 52.2873254C125.656572 50.8319695 123.69085 49.9996983 121.532656 49.9996983 117.35635 49.9996983 114.638961 52.9540373 114.638961 57.4834271 114.638961 62.0832915 117.33585 64.9414271 121.676156 64.9414271 123.110017 64.9414271 124.393544 64.6807831 125.631517 64.1326475 125.705544 63.0833593 125.729461 62.1537661 125.729461 61.0340034 125.729461 59.7710542 125.705544 59.1278339 125.582544 58.1736305 125.970906 58.2463424 126.19185 58.2698339 126.6531 58.2698339 127.110933 58.2698339 127.404767 58.2463424 127.863739 58.1736305 127.744156 59.3907153 127.671267 60.8192237 127.671267 62.226478 127.671267 63.6795966 127.671267 64.0845458 127.744156 64.7523763 125.4846 65.4918 123.449406 65.8251559 121.263878 65.8251559 118.475878 65.8251559 116.436128 65.2043085 114.83485 63.8462746 113.134489 62.4166475 112.239322 60.2956983 112.239322 57.6970881 112.239322 54.9083085 113.257489 52.5502068 115.100211 51.0948508 116.775517 49.7603085 118.933711 49.1182068 121.749044 49.1182068 124.250044 49.1182068 126.093906 49.5455288 127.838683 50.4997322 127.548267 51.0008847 127.38085 51.5009186 127.233933 52.2873254L126.992489 52.2873254z"/>
      <path d="M121.263422 66C118.423033 66 116.342283 65.3578983 114.719367 63.9786102 112.981422 62.5187797 112.0612 60.3452542 112.0612 57.6963051 112.0612 54.8415254 113.099867 52.4487458 114.988144 50.9575932 116.691922 49.6029153 118.902506 48.9429153 121.749728 48.9429153 124.243894 48.9429153 126.149256 49.3758305 127.925922 50.3468136L128.084228 50.4318305 127.996533 50.5862034C127.716367 51.0661017 127.552367 51.5504746 127.408867 52.3178644L127.383811 52.4621695 126.912311 52.4621695 126.859922 52.4062373C125.558172 50.9889153 123.617506 50.1745424 121.5322 50.1745424 117.454978 50.1745424 114.817311 53.0427458 114.817311 57.4837627 114.817311 61.9751186 117.447006 64.7672542 121.6757 64.7672542 123.043506 64.7672542 124.281478 64.5211525 125.460228 64.0144068 125.524006 63.0769831 125.551339 62.1775932 125.551339 61.034339 125.551339 59.8317966 125.530839 59.1717966 125.404422 58.196339L125.372533 57.9558305 125.617394 58.0005763C125.985256 58.0688136 126.198228 58.0945424 126.653783 58.0945424 127.09795 58.0945424 127.383811 58.0710508 127.83595 58.0005763L128.062589 57.9647797 128.042089 58.1907458C127.919089 59.4536949 127.849617 60.886678 127.849617 62.2256949 127.849617 63.6832881 127.849617 64.0748136 127.922506 64.7336949L127.937311 64.8746441 127.800644 64.9193898C125.544506 65.6565763 123.467172 66 121.263422 66M121.749728 49.2930508C118.986783 49.2930508 116.849089 49.927322 115.212506 51.2327797 113.410783 52.6545763 112.417672 54.9500339 112.417672 57.6963051 112.417672 60.2389831 113.295756 62.3185424 114.950561 63.7123729 116.5097 65.0323729 118.514144 65.6498644 121.263422 65.6498644 123.382894 65.6498644 125.387339 65.3254576 127.552367 64.6307797 127.493144 64.0311864 127.493144 63.5937966 127.493144 62.2256949 127.493144 60.9549153 127.552367 59.6002373 127.663978 58.3820339 127.310922 58.4301356 127.037589 58.4457966 126.653783 58.4457966 126.275672 58.4457966 126.047894 58.4278983 125.789367 58.3887458 125.890728 59.2601695 125.907811 59.9156949 125.907811 61.034339 125.907811 62.2301695 125.880478 63.1608814 125.809867 64.1452881L125.803033 64.249322 125.705089 64.2929492C124.45345 64.8477966 123.134617 65.1173898 121.6757 65.1173898 117.223783 65.1173898 114.460839 62.1921356 114.460839 57.4837627 114.460839 52.8302034 117.23745 49.8244068 121.5322 49.8244068 123.690394 49.8244068 125.701672 50.656678 127.072894 52.1120339L127.086561 52.1120339C127.216394 51.4609831 127.366728 51.0045763 127.597922 50.5694237 125.900978 49.6767458 124.137978 49.2930508 121.749728 49.2930508M141.217325 57.6965288C141.217325 60.9618508 141.315269 64.3938508 141.438269 65.5158508 140.854019 65.443139 140.563603 65.4196475 140.175242 65.4196475 139.786881 65.4196475 139.520381 65.443139 139.059131 65.5158508 139.202631 63.3702915 139.300575 60.0803593 139.300575 56.863139 139.300575 53.7163932 139.227686 51.3101898 139.059131 49.4275119 139.835853 49.4991051 140.273186 49.521478 141.000936 49.521478 141.413214 49.521478 141.994047 49.4991051 142.672825 49.4756136 143.522436 49.4510034 144.274103 49.4275119 144.613492 49.4275119 146.166936 49.4275119 147.163464 49.6422915 147.989158 50.1423254 148.933297 50.7385627 149.517547 51.8337153 149.517547 53.0496814 149.517547 54.6459864 148.618964 55.9827661 147.016547 56.7669356 146.386742 57.1025288 145.733019 57.2926983 144.589575 57.507478 144.907325 57.8889356 145.561047 58.6977153 147.866158 61.5815797 149.566519 63.7036475 150.392214 64.6567322 151.238408 65.5158508 150.510658 65.443139 150.147353 65.4196475 149.710019 65.4196475 149.247631 65.4196475 148.933297 65.443139 148.352464 65.5158508 145.246714 61.3209356 142.990575 58.4829356 142.140964 57.6965288L141.217325 57.6965288zM142.578297 56.8877492C145.610019 56.8877492 147.330881 55.6013085 147.330881 53.2890712 147.330881 51.3101898 145.998381 50.2385288 143.497381 50.2385288 142.843658 50.2385288 142.189936 50.2843932 141.364242 50.4052068 141.266297 52.4534441 141.217325 53.6459186 141.217325 56.7915458 141.727547 56.863139 142.115908 56.8877492 142.578297 56.8877492L142.578297 56.8877492z"/>
      <path d="M151.706719 65.7389085L151.220414 65.6908068C150.482414 65.6169763 150.129358 65.5946034 149.709108 65.5946034 149.264942 65.5946034 148.967692 65.6169763 148.373192 65.6908068L148.268414 65.7031119 148.209192 65.6192136C145.179747 61.5283322 142.952081 58.7171797 142.067164 57.8714847L141.395219 57.8714847C141.399775 61.0663322 141.493164 64.3909424 141.616164 65.4972814L141.640081 65.7187729 141.416858 65.6908068C140.818942 65.6169763 140.542192 65.5946034 140.175469 65.5946034 139.804192 65.5946034 139.549081 65.6169763 139.087831 65.6896881L138.866886 65.7232475 138.880553 65.5039932C139.027469 63.2812475 139.121997 59.9689424 139.121997 56.8635864 139.121997 53.6430102 139.045692 51.2837898 138.880553 49.4425017L138.863469 49.231078 139.076442 49.2523322C139.856581 49.3239254 140.290497 49.3462983 141.000025 49.3462983 141.371303 49.3462983 141.878108 49.3272814 142.469192 49.3071458L143.137719 49.2870102C143.788025 49.2679932 144.336969 49.2523322 144.613719 49.2523322 146.187664 49.2523322 147.226331 49.4738237 148.082775 49.9928746 149.094108 50.6293831 149.695442 51.7737559 149.695442 53.0501288 149.695442 54.7023661 148.747886 56.1140949 147.096497 56.9251119 146.527053 57.2271458 145.935969 57.4195525 144.914386 57.6242644 145.299331 58.0896203 146.061247 59.0415864 148.006469 61.4735186 149.643053 63.5184 150.492664 64.5061627 151.367331 65.3932475L151.706719 65.7389085zM141.038747 57.5213492L142.210664 57.5213492 142.263053 57.5672136C143.120636 58.3592136 145.365386 61.1849085 148.436969 65.3283661 148.971108 65.2634847 149.283164 65.2444678 149.709108 65.2444678 150.041664 65.2444678 150.328664 65.2567729 150.779664 65.2959254 149.999525 64.4759593 149.166997 63.4893153 147.726303 61.6905356 145.397275 58.7787051 144.764053 57.9934169 144.449719 57.6197898L144.260664 57.3904678 144.554497 57.3345356C145.718442 57.1164 146.337997 56.9273492 146.932497 56.6130102 148.485942 55.8512136 149.338969 54.5871458 149.338969 53.0501288 149.338969 51.8934508 148.796858 50.862061 147.891442 50.2893153 147.096497 49.8082983 146.117053 49.6024678 144.613719 49.6024678 144.340386 49.6024678 143.794858 49.6192475 143.147969 49.6371458L142.482858 49.6572814C141.884942 49.6796542 141.374719 49.6964339 141.000025 49.6964339 140.342886 49.6964339 139.923775 49.6796542 139.255247 49.6214847 139.408997 51.4426373 139.479608 53.7526373 139.479608 56.8635864 139.479608 59.8760949 139.391914 63.0832475 139.251831 65.3093492 139.601469 65.2601288 139.849747 65.2444678 140.175469 65.2444678 140.510303 65.2444678 140.773386 65.2601288 141.238053 65.3149424 141.123025 63.9994169 141.038747 60.7665356 141.038747 57.6969763L141.038747 57.5213492zM142.577386 57.0627051C142.084247 57.0627051 141.685636 57.034739 141.192497 56.9642644L141.038747 56.9441288 141.038747 56.7908746C141.038747 53.6217559 141.087719 52.4192136 141.185664 50.3955864L141.192497 50.2524 141.335997 50.2311458C142.137775 50.1148068 142.805164 50.0633492 143.497608 50.0633492 146.086303 50.0633492 147.509914 51.2088407 147.509914 53.2884 147.509914 55.6867729 145.711608 57.0627051 142.577386 57.0627051L142.577386 57.0627051zM141.395219 56.638739C141.805219 56.6901966 142.151442 56.7125695 142.577386 56.7125695 145.525969 56.7125695 147.153442 55.4966034 147.153442 53.2884 147.153442 50.9135186 145.166081 50.4134847 143.497608 50.4134847 142.864386 50.4134847 142.252803 50.4582305 141.535303 50.5577898 141.445331 52.4572475 141.399775 53.6653831 141.395219 56.638739L141.395219 56.638739zM177.715297 57.6020034C177.715297 62.6314271 174.221186 65.8251559 168.715797 65.8251559 163.158019 65.8251559 159.737936 62.6314271 159.737936 57.4599356 159.737936 52.3119356 163.183075 49.1182068 168.691881 49.1182068 174.343047 49.1182068 177.715297 52.2873254 177.715297 57.6020034M163.473492 52.4293932C162.573769 53.6699695 162.136436 55.362478 162.136436 57.4599356 162.136436 59.5808847 162.573769 61.2487831 163.473492 62.5117322 164.588464 64.1326475 166.505214 65.0622407 168.715797 65.0622407 172.814658 65.0622407 175.312242 62.2018678 175.312242 57.5785119 175.312242 55.362478 174.903381 53.7404441 173.979742 52.4293932 172.863631 50.8095966 170.922964 49.881122 168.715797 49.881122 166.505214 49.881122 164.637436 50.7861051 163.473492 52.4293932"/>
      <path d="M168.715797 66C163.066908 66 159.559131 62.7279661 159.559131 57.4591525 159.559131 52.2071186 163.056658 48.9429153 168.691881 48.9429153 174.455797 48.9429153 177.892964 52.1791525 177.892964 57.602339 177.892964 62.7033559 174.290658 66 168.715797 66M168.691881 49.2930508C163.281019 49.2930508 159.915603 52.4230169 159.915603 57.4591525 159.915603 62.5109492 163.287853 65.6498644 168.715797 65.6498644 174.158547 65.6498644 177.536492 62.5657627 177.536492 57.602339 177.536492 52.3995254 174.228019 49.2930508 168.691881 49.2930508M168.715797 65.2370847C166.439158 65.2370847 164.473436 64.2806441 163.325436 62.6093898 162.406353 61.3195932 161.958769 59.6337966 161.958769 57.4591525 161.958769 55.3091186 162.416603 53.5819322 163.325436 52.3301695L163.325436 52.3290508C164.525825 50.6365424 166.439158 49.7058305 168.715797 49.7058305 171.007242 49.7058305 172.979797 50.6622712 174.126658 52.3324068 175.057131 53.6512881 175.491047 55.3191864 175.491047 57.5777288 175.491047 62.3028814 172.895519 65.2370847 168.715797 65.2370847M168.715797 50.0559661C166.561019 50.0559661 164.749047 50.9352203 163.619269 52.5315254 162.755992 53.7251186 162.315242 55.3829492 162.315242 57.4591525 162.315242 59.5588475 162.742325 61.1786441 163.619269 62.4102712 164.703492 63.985322 166.561019 64.8869492 168.715797 64.8869492 172.675714 64.8869492 175.133436 62.0858644 175.133436 57.5777288 175.133436 55.3639322 174.731408 53.8078983 173.832825 52.5292881 172.748603 50.9575932 170.884242 50.0559661 168.715797 50.0559661M189.544367 49.5218136C189.956644 49.5218136 190.223144 49.4994407 190.733367 49.4278475 190.537478 51.2378136 190.393978 54.8141186 190.393978 57.8411695 190.393978 60.4375424 190.58645 61.5584237 191.192339 62.5596102 192.090922 64.0362203 193.499728 64.728661 195.511006 64.728661 198.086033 64.728661 199.953811 63.4645932 200.509589 61.4152373 200.827339 60.1768983 200.89795 58.936322 200.89795 54.8611017 200.89795 51.8575424 200.872894 51.167339 200.75445 49.4278475 201.408172 49.5218136 201.506117 49.5218136 201.698589 49.5218136 201.94345 49.5218136 202.135922 49.4994407 202.524283 49.4278475 202.380783 50.2847288 202.184894 54.121678 202.135922 56.5524915 202.061894 59.3904915 202.041394 59.8424237 201.894478 60.7004237 201.580144 62.5115085 200.89795 63.6793729 199.589367 64.6089661 198.473256 65.3953729 196.92095 65.8249322 195.1477 65.8249322 193.038478 65.8249322 191.216256 65.2533051 190.027256 64.2028983 188.841672 63.1312373 188.379283 61.8447966 188.379283 59.4844576 188.379283 59.1992034 188.404339 57.6263898 188.449894 56.0289661 188.473811 55.2414407 188.473811 54.5758475 188.473811 53.9315085 188.473811 52.2636102 188.428256 50.523 188.355367 49.4278475 188.862172 49.4994407 189.156006 49.5218136 189.544367 49.5218136"/>
      <path d="M195.147586 66C192.985975 66 191.125031 65.4093559 189.907558 64.334339 188.676419 63.2246441 188.201503 61.8632542 188.201503 59.4850169 188.201503 59.1941695 188.225419 57.6213559 188.270975 56.0239322 188.296031 55.2386441 188.296031 54.5741695 188.296031 53.9309492 188.296031 52.2518644 188.250475 50.5302712 188.176447 49.4395932L188.162781 49.2225763 188.379169 49.2538983C188.872308 49.3221356 189.155892 49.3467458 189.544253 49.3467458 189.942864 49.3467458 190.191142 49.3266102 190.709336 49.2538983L190.935975 49.2214576 190.912058 49.4463051C190.716169 51.2585085 190.572669 54.7878305 190.572669 57.8406102 190.572669 60.3776949 190.761725 61.5008136 191.345975 62.470678 192.209253 63.8902373 193.534919 64.5535932 195.510892 64.5535932 197.991392 64.5535932 199.795392 63.3633559 200.337503 61.3710508 200.646142 60.1617966 200.719031 58.9435932 200.719031 54.8605424 200.719031 51.8189492 200.695114 51.1623051 200.575531 49.4395932L200.561864 49.2214576 200.778253 49.2538983C201.421725 49.3467458 201.512836 49.3467458 201.698475 49.3467458 201.929669 49.3467458 202.115308 49.3243729 202.488864 49.2538983L202.740558 49.2080339 202.702975 49.4563729C202.559475 50.3054237 202.363586 54.1770508 202.314614 56.5564068 202.240586 59.3888136 202.220086 59.8519322 202.069753 60.7300678 201.747447 62.5959661 201.037919 63.7985085 199.694031 64.7515932 198.533503 65.569322 196.962975 66 195.147586 66M188.547725 49.632C188.613781 50.7327458 188.652503 52.3514237 188.652503 53.9309492 188.652503 54.5775254 188.652503 55.2453559 188.627447 56.034 188.581892 57.6280678 188.557975 59.1964068 188.557975 59.4850169 188.557975 61.7827119 188.988475 63.0266441 190.149003 64.0748136 191.300419 65.0894237 193.073669 65.6498644 195.147586 65.6498644 196.861614 65.6498644 198.403669 65.2292542 199.484475 64.466339 200.744086 63.5725424 201.411475 62.4371186 201.720114 60.6718983 201.862475 59.8183729 201.884114 59.3574915 201.957003 56.5474576 202.002558 54.3146441 202.171114 50.8479661 202.314614 49.6431864 202.061781 49.6834576 201.897781 49.6968814 201.698475 49.6968814 201.519669 49.6968814 201.421725 49.6968814 200.946808 49.632 201.055003 51.2081695 201.075503 51.9386441 201.075503 54.8605424 201.075503 58.9793898 201.002614 60.2132542 200.683725 61.4583051 200.097197 63.6172881 198.162225 64.9037288 195.510892 64.9037288 193.423308 64.9037288 191.960975 64.167661 191.037336 62.6507797 190.415503 61.6182712 190.216197 60.4504068 190.216197 57.8406102 190.216197 54.8985763 190.348308 51.5090847 190.530531 49.632 190.142169 49.6812203 189.893892 49.6968814 189.544253 49.6968814 189.201447 49.6968814 188.932669 49.6801017 188.547725 49.632M215.48985 49.5218136C215.976156 49.5218136 216.580906 49.4994407 217.333711 49.4748305 218.036406 49.451339 218.620656 49.4278475 218.960044 49.4278475 222.454156 49.4278475 224.272961 50.7858814 224.272961 53.3587627 224.272961 54.9807966 223.496239 56.3858136 222.163739 57.1722203 220.998656 57.864661 219.613767 58.1499153 217.479489 58.1499153 216.969267 58.1499153 216.825767 58.1499153 215.804183 58.1264237 215.829239 62.535 215.902128 64.3237119 216.025128 65.5161864 215.175517 65.4199831 215.077572 65.4199831 214.836128 65.4199831 214.640239 65.4199831 214.520656 65.4199831 213.645989 65.5161864 213.765572 63.7274746 213.863517 60.2473729 213.863517 56.8388644 213.863517 53.5254407 213.789489 51.1919492 213.645989 49.4278475 214.398794 49.4994407 214.787156 49.5218136 215.48985 49.5218136M217.165156 57.3388983C220.341517 57.3388983 222.089711 55.9819831 222.089711 53.5254407 222.089711 51.3340169 220.753794 50.2623559 218.036406 50.2623559 217.259683 50.2623559 216.727822 50.3082203 215.976156 50.4290339 215.853156 52.0242203 215.780267 54.0512034 215.780267 56.1005593 215.780267 56.4104237 215.780267 56.5524915 215.804183 57.2449322 216.388433 57.3154068 216.703906 57.3388983 217.165156 57.3388983"/>
      <path d="M216.224319,65.7148576 L216.004514,65.6902475 C215.164014,65.5951627 215.070625,65.5951627 214.836014,65.5951627 C214.646958,65.5951627 214.531931,65.5951627 213.667514,65.6902475 L213.454542,65.7126203 L213.468208,65.5034339 C213.594625,63.5883153 213.684597,60.0243153 213.684597,56.8395356 C213.684597,53.6066542 213.615125,51.2563831 213.468208,49.4408237 L213.451125,49.2316373 L213.664097,49.2517729 C214.440819,49.3256034 214.814375,49.3468576 215.489736,49.3468576 C215.905431,49.3468576 216.406542,49.3289593 217.014708,49.311061 L217.762958,49.2842136 C218.274319,49.2663153 218.693431,49.2517729 218.959931,49.2517729 C223.499542,49.2517729 224.450514,51.4845864 224.450514,53.3594339 C224.450514,55.0541797 223.649875,56.4994678 222.254736,57.3239085 C221.072569,58.0264169 219.645542,58.3250949 217.480514,58.3250949 C217.001042,58.3250949 216.843875,58.3250949 215.982875,58.306078 C216.011347,62.7638746 216.091069,64.4094 216.203819,65.4989593 L216.224319,65.7148576 Z M213.842903,49.6209254 C213.978431,51.4185864 214.042208,53.7196373 214.042208,56.8395356 C214.042208,59.9191627 213.957931,63.3534 213.839486,65.317739 C214.531931,65.2439085 214.650375,65.2439085 214.836014,65.2439085 C215.059236,65.2439085 215.164014,65.2439085 215.825708,65.3166203 C215.724347,64.1968576 215.650319,62.4461797 215.626403,58.1270949 L215.626403,57.9458746 L215.808625,57.9503492 C216.825653,57.9749593 216.969153,57.9749593 217.480514,57.9749593 C219.574931,57.9749593 220.949569,57.6897051 222.069097,57.0218746 C223.356042,56.2634339 224.094042,54.9277729 224.094042,53.3594339 C224.094042,50.8670949 222.366347,49.6030271 218.959931,49.6030271 C218.693431,49.6030271 218.281153,49.6175695 217.777764,49.6354678 L217.024958,49.6611966 C216.413375,49.6813322 215.909986,49.6969932 215.489736,49.6969932 C214.866764,49.6969932 214.493208,49.6813322 213.842903,49.6209254 L213.842903,49.6209254 Z M217.165042,57.514078 C216.710625,57.514078 216.399708,57.4939424 215.783569,57.4201119 L215.629819,57.4010949 L215.626403,57.2511966 C215.601347,56.5542814 215.601347,56.4122136 215.601347,56.1012305 C215.601347,54.0854339 215.671958,52.0662814 215.797236,50.4151627 L215.808625,50.2775695 L215.947569,50.2551966 C216.727708,50.1299085 217.273236,50.0874 218.036292,50.0874 C220.844792,50.0874 222.268403,51.2429593 222.268403,53.5261119 C222.268403,56.0989932 220.456431,57.514078 217.165042,57.514078 L217.165042,57.514078 Z M215.979458,57.0889932 C216.479431,57.1449254 216.766431,57.1639424 217.165042,57.1639424 C220.225236,57.1639424 221.911931,55.8719085 221.911931,53.5261119 C221.911931,51.4476712 220.642069,50.4375356 218.036292,50.4375356 C217.333597,50.4375356 216.835903,50.4755695 216.143458,50.5796034 C216.025014,52.1960441 215.958958,54.1491966 215.958958,56.1012305 C215.958958,56.3842475 215.958958,56.5263153 215.979458,57.0889932 L215.979458,57.0889932 Z"/>
    </g>
    <polygon points="170.415 29.939 170.585 30.066 170.422 29.934"/>
    <path d="M190,41.2442081 L173.074035,27.9027517 L188.649537,16.0463698 L187.060894,15.1620126 C184.832805,13.9190699 182.668075,12.9032698 180.563182,12.0558088 L186.555204,7.36652504 L185.055732,6.47870883 C162.60237,-6.81316818 145.015839,6.18815079 144.841018,6.31959371 L143.660683,7.21548098 L148.929954,11.6741632 C144.9912,13.3506369 142.785404,15.1112802 142.72322,15.1620126 L141.568696,16.1097852 L156.658454,27.7055873 L140,40.7414966 L141.502992,41.6281598 C141.75525,41.7768978 143.915288,43.0140755 147.647542,44.235111 L141.952364,48.5715743 L143.13622,49.521653 C143.579725,49.8779325 150.793148,55.5011528 163.005984,55.5 C169.138801,55.5 176.536431,54.0806469 184.965388,49.8652494 L186.617388,49.0385426 L180.890532,44.3919201 C183.206617,43.7496946 185.595448,42.9702612 188.061715,42.0040404 L190,41.2442081 Z M147.579491,7.37805512 C151.656694,4.88179265 165.11205,-1.6719052 182.273847,7.65938909 L177.918573,11.0676809 C166.800422,7.29157951 157.674528,8.59447863 151.501819,10.6952593 L147.579491,7.37805512 Z M163.406078,44.2927614 C159.455591,44.233958 155.977942,43.7646837 153.057609,43.1420594 L163.406078,35.2635552 L163.406078,44.2927614 Z M165.83832,35.2785443 L175.577848,43.1812616 C172.110759,43.8592304 168.85369,44.1936027 165.83832,44.2789253 L165.83832,35.2785443 Z M163.406078,20.7679378 L153.609058,12.4789628 C154.294263,12.2737274 155.00176,12.077716 155.753843,11.9047648 C157.90332,11.4112773 160.479878,11.0526918 163.406078,11.0273257 L163.406078,20.7679378 Z M165.83832,11.080364 C168.812625,11.2452442 172.095506,11.7710159 175.644726,12.8479254 L165.83832,20.5211941 L165.83832,11.080364 Z M144.3717,40.375993 L160.525637,27.7355656 L159.47671,26.8650445 L159.006218,26.4741747 L158.630764,26.1628626 L158.615511,26.1743926 L145.53209,16.1201623 C146.647894,15.4018383 148.493488,14.3502949 150.955063,13.3875332 L162.487387,23.1442874 L162.472134,23.1569705 L163.406078,23.8349393 L163.406078,25.4814348 L163.406078,30.1269043 L163.406078,32.2392151 L150.056318,42.4029812 C147.534906,41.6950342 145.609527,40.9317429 144.3717,40.375993 L144.3717,40.375993 Z M182.184677,48.5415961 C163.013024,57.4105342 149.953068,51.0609188 145.950956,48.5508202 L150.522117,45.0710419 C154.117095,46.0038254 158.678869,46.7613517 164.07603,46.7613517 C168.247096,46.7613517 172.91212,46.3024545 177.985451,45.1344573 L182.184677,48.5415961 Z M178.577966,42.514823 L166.622081,32.8145661 L166.633814,32.806495 L165.83832,32.1469744 L165.83832,30.3886371 L165.83832,25.6013476 L165.83832,23.5778185 L178.364426,13.7760969 C180.263992,14.4794318 182.223396,15.3268927 184.247331,16.3738241 L169.055497,27.938495 L171.088818,29.4154983 L171.095858,29.4085803 L171.288279,29.5607773 L171.379796,29.6264988 L171.376276,29.6299578 L185.19418,40.521272 C182.920333,41.3364487 180.71571,41.9890513 178.577966,42.514823 L178.577966,42.514823 Z"/>
  </g>
</svg>
